<?xml version="1.0" encoding="utf-8"?><svg xmlns="http://www.w3.org/2000/svg" xmlns:xlink="http://www.w3.org/1999/xlink"><symbol viewBox="0 0 24 24" id="icon-mono_cancel" xmlns="http://www.w3.org/2000/svg"><path d="M19 6.41 17.59 5 12 10.59 6.41 5 5 6.41 10.59 12 5 17.59 6.41 19 12 13.41 17.59 19 19 17.59 13.41 12 19 6.41Z"/></symbol><symbol viewBox="0 0 24 24" id="icon-mono_menu" xmlns="http://www.w3.org/2000/svg"><path fill-rule="evenodd" clip-rule="evenodd" d="M3 8V6h18v2H3Zm0 5h18v-2H3v2Zm0 5h18v-2H3v2Z"/></symbol><symbol viewBox="0 0 70 70" id="icon-mono_swiper-arrow" xmlns="http://www.w3.org/2000/svg"><path fill-rule="evenodd" clip-rule="evenodd" d="M24.172 39.79c-2.636-2.636-2.636-6.944 0-9.58L43.19 11.192a1 1 0 1 1 1.414 1.414L25.586 31.624c-1.855 1.855-1.855 4.897 0 6.752l19.017 19.017a1 1 0 0 1-1.414 1.414L24.172 39.79Z"/></symbol></svg>